<mxfile host="app.diagrams.net" modified="2020-11-30T15:29:42.743Z" agent="5.0 (Macintosh; Intel Mac OS X 10_15_6) AppleWebKit/537.36 (KHTML, like Gecko) Chrome/86.0.4240.183 Safari/537.36" etag="kOgfFPDMccyO_RTfSh-v" version="13.10.0" type="github" pages="2">
  <diagram id="C5RBs43oDa-KdzZeNtuy" name="~/hello">
    <mxGraphModel dx="946" dy="687" grid="1" gridSize="10" guides="1" tooltips="1" connect="1" arrows="1" fold="1" page="1" pageScale="1" pageWidth="2027" pageHeight="1169" math="0" shadow="0">
      <root>
        <mxCell id="WIyWlLk6GJQsqaUBKTNV-0" />
        <mxCell id="WIyWlLk6GJQsqaUBKTNV-1" parent="WIyWlLk6GJQsqaUBKTNV-0" />
        <mxCell id="WIyWlLk6GJQsqaUBKTNV-2" value="" style="rounded=0;html=1;jettySize=auto;orthogonalLoop=1;fontSize=11;endArrow=block;endFill=0;endSize=8;strokeWidth=1;shadow=0;labelBackgroundColor=none;edgeStyle=orthogonalEdgeStyle;" parent="WIyWlLk6GJQsqaUBKTNV-1" source="WIyWlLk6GJQsqaUBKTNV-3" edge="1">
          <mxGeometry relative="1" as="geometry">
            <mxPoint x="220" y="170" as="targetPoint" />
          </mxGeometry>
        </mxCell>
        <mxCell id="WIyWlLk6GJQsqaUBKTNV-3" value="&lt;font style=&quot;vertical-align: inherit&quot;&gt;&lt;font style=&quot;vertical-align: inherit&quot;&gt;〜/hello&lt;/font&gt;&lt;/font&gt;" style="rounded=1;whiteSpace=wrap;html=1;fontSize=12;glass=0;strokeWidth=1;shadow=0;arcSize=0;" parent="WIyWlLk6GJQsqaUBKTNV-1" vertex="1">
          <mxGeometry x="160" y="80" width="120" height="40" as="geometry" />
        </mxCell>
        <mxCell id="QQPHBSheBz1uxM25Vx0v-2" value="" style="edgeStyle=orthogonalEdgeStyle;rounded=0;orthogonalLoop=1;jettySize=auto;html=1;" edge="1" parent="WIyWlLk6GJQsqaUBKTNV-1" source="QQPHBSheBz1uxM25Vx0v-0" target="QQPHBSheBz1uxM25Vx0v-1">
          <mxGeometry relative="1" as="geometry" />
        </mxCell>
        <mxCell id="QQPHBSheBz1uxM25Vx0v-14" value="" style="edgeStyle=orthogonalEdgeStyle;rounded=0;orthogonalLoop=1;jettySize=auto;html=1;exitX=0.75;exitY=1;exitDx=0;exitDy=0;" edge="1" parent="WIyWlLk6GJQsqaUBKTNV-1" source="QQPHBSheBz1uxM25Vx0v-0" target="QQPHBSheBz1uxM25Vx0v-13">
          <mxGeometry relative="1" as="geometry">
            <Array as="points">
              <mxPoint x="360" y="230" />
            </Array>
          </mxGeometry>
        </mxCell>
        <mxCell id="QQPHBSheBz1uxM25Vx0v-29" style="edgeStyle=orthogonalEdgeStyle;rounded=0;orthogonalLoop=1;jettySize=auto;html=1;exitX=1;exitY=0.5;exitDx=0;exitDy=0;" edge="1" parent="WIyWlLk6GJQsqaUBKTNV-1" source="QQPHBSheBz1uxM25Vx0v-0" target="vuPanQDPMb22JTD1qer_-0">
          <mxGeometry relative="1" as="geometry">
            <mxPoint x="680" y="260" as="targetPoint" />
          </mxGeometry>
        </mxCell>
        <mxCell id="vuPanQDPMb22JTD1qer_-15" style="edgeStyle=orthogonalEdgeStyle;rounded=0;orthogonalLoop=1;jettySize=auto;html=1;exitX=1;exitY=0.25;exitDx=0;exitDy=0;" edge="1" parent="WIyWlLk6GJQsqaUBKTNV-1" source="QQPHBSheBz1uxM25Vx0v-0" target="vuPanQDPMb22JTD1qer_-13">
          <mxGeometry relative="1" as="geometry" />
        </mxCell>
        <mxCell id="vuPanQDPMb22JTD1qer_-16" style="edgeStyle=orthogonalEdgeStyle;rounded=0;orthogonalLoop=1;jettySize=auto;html=1;exitX=1;exitY=0;exitDx=0;exitDy=0;" edge="1" parent="WIyWlLk6GJQsqaUBKTNV-1" source="QQPHBSheBz1uxM25Vx0v-0" target="vuPanQDPMb22JTD1qer_-14">
          <mxGeometry relative="1" as="geometry">
            <mxPoint x="840" y="200" as="targetPoint" />
            <Array as="points">
              <mxPoint x="1040" y="170" />
            </Array>
          </mxGeometry>
        </mxCell>
        <mxCell id="QQPHBSheBz1uxM25Vx0v-0" value="&lt;font style=&quot;vertical-align: inherit&quot;&gt;&lt;font style=&quot;vertical-align: inherit&quot;&gt;ホームページを表示&lt;/font&gt;&lt;/font&gt;" style="rounded=1;whiteSpace=wrap;html=1;arcSize=20;" vertex="1" parent="WIyWlLk6GJQsqaUBKTNV-1">
          <mxGeometry x="160" y="170" width="120" height="60" as="geometry" />
        </mxCell>
        <mxCell id="QQPHBSheBz1uxM25Vx0v-19" style="edgeStyle=orthogonalEdgeStyle;rounded=0;orthogonalLoop=1;jettySize=auto;html=1;exitX=0.5;exitY=1;exitDx=0;exitDy=0;entryX=0.5;entryY=0;entryDx=0;entryDy=0;" edge="1" parent="WIyWlLk6GJQsqaUBKTNV-1" source="QQPHBSheBz1uxM25Vx0v-1" target="QQPHBSheBz1uxM25Vx0v-18">
          <mxGeometry relative="1" as="geometry" />
        </mxCell>
        <mxCell id="QQPHBSheBz1uxM25Vx0v-1" value="注目の映画投稿のもっと見るボタン" style="whiteSpace=wrap;html=1;rounded=1;" vertex="1" parent="WIyWlLk6GJQsqaUBKTNV-1">
          <mxGeometry x="160" y="270" width="120" height="60" as="geometry" />
        </mxCell>
        <mxCell id="QQPHBSheBz1uxM25Vx0v-3" value="/search&lt;br&gt;に移動" style="whiteSpace=wrap;html=1;rounded=1;" vertex="1" parent="WIyWlLk6GJQsqaUBKTNV-1">
          <mxGeometry x="160" y="450" width="120" height="60" as="geometry" />
        </mxCell>
        <mxCell id="QQPHBSheBz1uxM25Vx0v-17" value="" style="edgeStyle=orthogonalEdgeStyle;rounded=0;orthogonalLoop=1;jettySize=auto;html=1;" edge="1" parent="WIyWlLk6GJQsqaUBKTNV-1" source="QQPHBSheBz1uxM25Vx0v-13" target="QQPHBSheBz1uxM25Vx0v-16">
          <mxGeometry relative="1" as="geometry" />
        </mxCell>
        <mxCell id="QQPHBSheBz1uxM25Vx0v-13" value="&lt;span&gt;映画を探すのもっと見るボタン&lt;/span&gt;" style="whiteSpace=wrap;html=1;rounded=1;" vertex="1" parent="WIyWlLk6GJQsqaUBKTNV-1">
          <mxGeometry x="310" y="270" width="120" height="60" as="geometry" />
        </mxCell>
        <mxCell id="QQPHBSheBz1uxM25Vx0v-15" value="" style="endArrow=classic;html=1;exitX=1;exitY=0.75;exitDx=0;exitDy=0;entryX=0.5;entryY=0;entryDx=0;entryDy=0;" edge="1" parent="WIyWlLk6GJQsqaUBKTNV-1" source="QQPHBSheBz1uxM25Vx0v-0" target="QQPHBSheBz1uxM25Vx0v-21">
          <mxGeometry width="50" height="50" relative="1" as="geometry">
            <mxPoint x="390" y="390" as="sourcePoint" />
            <mxPoint x="530" y="270" as="targetPoint" />
            <Array as="points">
              <mxPoint x="520" y="215" />
            </Array>
          </mxGeometry>
        </mxCell>
        <mxCell id="QQPHBSheBz1uxM25Vx0v-16" value="&lt;span&gt;/search&lt;/span&gt;&lt;br&gt;&lt;span&gt;に移動&lt;/span&gt;" style="whiteSpace=wrap;html=1;rounded=1;" vertex="1" parent="WIyWlLk6GJQsqaUBKTNV-1">
          <mxGeometry x="310" y="360" width="120" height="60" as="geometry" />
        </mxCell>
        <mxCell id="QQPHBSheBz1uxM25Vx0v-20" style="edgeStyle=orthogonalEdgeStyle;rounded=0;orthogonalLoop=1;jettySize=auto;html=1;exitX=0.5;exitY=1;exitDx=0;exitDy=0;entryX=0.5;entryY=0;entryDx=0;entryDy=0;" edge="1" parent="WIyWlLk6GJQsqaUBKTNV-1" source="QQPHBSheBz1uxM25Vx0v-18" target="QQPHBSheBz1uxM25Vx0v-3">
          <mxGeometry relative="1" as="geometry" />
        </mxCell>
        <mxCell id="QQPHBSheBz1uxM25Vx0v-18" value="引数で検索条件を渡す" style="rounded=1;whiteSpace=wrap;html=1;" vertex="1" parent="WIyWlLk6GJQsqaUBKTNV-1">
          <mxGeometry x="160" y="360" width="120" height="60" as="geometry" />
        </mxCell>
        <mxCell id="QQPHBSheBz1uxM25Vx0v-23" value="" style="edgeStyle=orthogonalEdgeStyle;rounded=0;orthogonalLoop=1;jettySize=auto;html=1;" edge="1" parent="WIyWlLk6GJQsqaUBKTNV-1" source="QQPHBSheBz1uxM25Vx0v-21" target="QQPHBSheBz1uxM25Vx0v-22">
          <mxGeometry relative="1" as="geometry" />
        </mxCell>
        <mxCell id="QQPHBSheBz1uxM25Vx0v-21" value="レビュアーランキングのもっと見るボタン" style="rounded=1;whiteSpace=wrap;html=1;" vertex="1" parent="WIyWlLk6GJQsqaUBKTNV-1">
          <mxGeometry x="460" y="270" width="120" height="60" as="geometry" />
        </mxCell>
        <mxCell id="QQPHBSheBz1uxM25Vx0v-22" value="/reviewerRanking&lt;br&gt;に移動" style="whiteSpace=wrap;html=1;rounded=1;" vertex="1" parent="WIyWlLk6GJQsqaUBKTNV-1">
          <mxGeometry x="460" y="360" width="120" height="60" as="geometry" />
        </mxCell>
        <mxCell id="vuPanQDPMb22JTD1qer_-6" value="" style="edgeStyle=orthogonalEdgeStyle;rounded=0;orthogonalLoop=1;jettySize=auto;html=1;" edge="1" parent="WIyWlLk6GJQsqaUBKTNV-1" source="vuPanQDPMb22JTD1qer_-0" target="vuPanQDPMb22JTD1qer_-1">
          <mxGeometry relative="1" as="geometry">
            <mxPoint x="670" y="360" as="targetPoint" />
            <Array as="points">
              <mxPoint x="670" y="360" />
              <mxPoint x="670" y="360" />
            </Array>
          </mxGeometry>
        </mxCell>
        <mxCell id="vuPanQDPMb22JTD1qer_-0" value="レビューするボタン" style="rounded=1;whiteSpace=wrap;html=1;" vertex="1" parent="WIyWlLk6GJQsqaUBKTNV-1">
          <mxGeometry x="610" y="270" width="120" height="60" as="geometry" />
        </mxCell>
        <mxCell id="vuPanQDPMb22JTD1qer_-1" value="/movieSelectForReview&lt;br&gt;に移動" style="whiteSpace=wrap;html=1;rounded=1;" vertex="1" parent="WIyWlLk6GJQsqaUBKTNV-1">
          <mxGeometry x="610" y="360" width="170" height="60" as="geometry" />
        </mxCell>
        <mxCell id="vuPanQDPMb22JTD1qer_-18" value="" style="edgeStyle=orthogonalEdgeStyle;rounded=0;orthogonalLoop=1;jettySize=auto;html=1;" edge="1" parent="WIyWlLk6GJQsqaUBKTNV-1" source="vuPanQDPMb22JTD1qer_-13" target="vuPanQDPMb22JTD1qer_-17">
          <mxGeometry relative="1" as="geometry" />
        </mxCell>
        <mxCell id="vuPanQDPMb22JTD1qer_-13" value="アカウント設定" style="rounded=1;whiteSpace=wrap;html=1;" vertex="1" parent="WIyWlLk6GJQsqaUBKTNV-1">
          <mxGeometry x="820" y="270" width="120" height="60" as="geometry" />
        </mxCell>
        <mxCell id="vuPanQDPMb22JTD1qer_-20" value="" style="edgeStyle=orthogonalEdgeStyle;rounded=0;orthogonalLoop=1;jettySize=auto;html=1;" edge="1" parent="WIyWlLk6GJQsqaUBKTNV-1" source="vuPanQDPMb22JTD1qer_-14" target="vuPanQDPMb22JTD1qer_-19">
          <mxGeometry relative="1" as="geometry" />
        </mxCell>
        <mxCell id="vuPanQDPMb22JTD1qer_-14" value="ログイン" style="rounded=1;whiteSpace=wrap;html=1;" vertex="1" parent="WIyWlLk6GJQsqaUBKTNV-1">
          <mxGeometry x="970" y="270" width="120" height="60" as="geometry" />
        </mxCell>
        <mxCell id="vuPanQDPMb22JTD1qer_-17" value="/profile&lt;br&gt;に移動" style="whiteSpace=wrap;html=1;rounded=1;" vertex="1" parent="WIyWlLk6GJQsqaUBKTNV-1">
          <mxGeometry x="820" y="360" width="120" height="60" as="geometry" />
        </mxCell>
        <mxCell id="vuPanQDPMb22JTD1qer_-19" value="/login&lt;br&gt;に移動" style="whiteSpace=wrap;html=1;rounded=1;" vertex="1" parent="WIyWlLk6GJQsqaUBKTNV-1">
          <mxGeometry x="970" y="360" width="120" height="60" as="geometry" />
        </mxCell>
      </root>
    </mxGraphModel>
  </diagram>
  <diagram id="A0EQDVkAkL5SHqcOITj4" name="/search">
    <mxGraphModel dx="946" dy="687" grid="1" gridSize="10" guides="1" tooltips="1" connect="1" arrows="1" fold="1" page="1" pageScale="1" pageWidth="2027" pageHeight="1169" math="0" shadow="0">
      <root>
        <mxCell id="Op_aY7XqOPKgfjPb0cTw-0" />
        <mxCell id="Op_aY7XqOPKgfjPb0cTw-1" parent="Op_aY7XqOPKgfjPb0cTw-0" />
        <mxCell id="tITy_5V4C1rcvI6Tda-8-0" style="edgeStyle=orthogonalEdgeStyle;rounded=0;orthogonalLoop=1;jettySize=auto;html=1;exitX=0.5;exitY=1;exitDx=0;exitDy=0;entryX=0.5;entryY=0;entryDx=0;entryDy=0;" edge="1" parent="Op_aY7XqOPKgfjPb0cTw-1" source="SbmKDP6JJVF8_nTbkaBC-0" target="PKRoyXIj0E0IrlNuwYJP-3">
          <mxGeometry relative="1" as="geometry" />
        </mxCell>
        <mxCell id="SbmKDP6JJVF8_nTbkaBC-0" value="&lt;span&gt;/search&lt;/span&gt;" style="rounded=1;whiteSpace=wrap;html=1;arcSize=0;" vertex="1" parent="Op_aY7XqOPKgfjPb0cTw-1">
          <mxGeometry x="160" y="80" width="120" height="50" as="geometry" />
        </mxCell>
        <mxCell id="PKRoyXIj0E0IrlNuwYJP-3" value="引数あり" style="rhombus;whiteSpace=wrap;html=1;" vertex="1" parent="Op_aY7XqOPKgfjPb0cTw-1">
          <mxGeometry x="150" y="160" width="140" height="70" as="geometry" />
        </mxCell>
        <mxCell id="tITy_5V4C1rcvI6Tda-8-1" value="" style="endArrow=classic;html=1;exitX=1;exitY=0.5;exitDx=0;exitDy=0;" edge="1" parent="Op_aY7XqOPKgfjPb0cTw-1" source="PKRoyXIj0E0IrlNuwYJP-3">
          <mxGeometry relative="1" as="geometry">
            <mxPoint x="370" y="250" as="sourcePoint" />
            <mxPoint x="340" y="195" as="targetPoint" />
          </mxGeometry>
        </mxCell>
        <mxCell id="tITy_5V4C1rcvI6Tda-8-2" value="yes" style="edgeLabel;resizable=0;html=1;align=center;verticalAlign=middle;" connectable="0" vertex="1" parent="tITy_5V4C1rcvI6Tda-8-1">
          <mxGeometry relative="1" as="geometry" />
        </mxCell>
        <mxCell id="tITy_5V4C1rcvI6Tda-8-3" value="" style="endArrow=classic;html=1;exitX=0.5;exitY=1;exitDx=0;exitDy=0;entryX=0.5;entryY=0;entryDx=0;entryDy=0;" edge="1" parent="Op_aY7XqOPKgfjPb0cTw-1" source="PKRoyXIj0E0IrlNuwYJP-3" target="tITy_5V4C1rcvI6Tda-8-5">
          <mxGeometry relative="1" as="geometry">
            <mxPoint x="370" y="250" as="sourcePoint" />
            <mxPoint x="220" y="270" as="targetPoint" />
            <Array as="points" />
          </mxGeometry>
        </mxCell>
        <mxCell id="tITy_5V4C1rcvI6Tda-8-4" value="no" style="edgeLabel;resizable=0;html=1;align=center;verticalAlign=middle;" connectable="0" vertex="1" parent="tITy_5V4C1rcvI6Tda-8-3">
          <mxGeometry relative="1" as="geometry" />
        </mxCell>
        <mxCell id="tITy_5V4C1rcvI6Tda-8-5" value="" style="rounded=1;whiteSpace=wrap;html=1;" vertex="1" parent="Op_aY7XqOPKgfjPb0cTw-1">
          <mxGeometry x="160" y="260" width="120" height="60" as="geometry" />
        </mxCell>
      </root>
    </mxGraphModel>
  </diagram>
</mxfile>
